# xmcd
#
# Track frame offsets:
#	150
#	12805
#	22964
#	35862
#	47804
#	64872
#	73142
#	90394
#	103683
#	115295
#
# Disc length: 1670 seconds
# Revision: 0
# Processed by: cddbd v1.5.2PL0 Copyright (c) Steve Scherf et al.
# Submitted via: dBpowerAMP V12.0
#
DISCID=8306840a
DTITLE=Jack Clement - All I Want to do in Life [Elektra] (L)
DYEAR=1978
DGENRE=Country
TTITLE0=Gone Girl
TTITLE1=Roving Gambler
TTITLE2=We Must Believe In Magic
TTITLE3=Good Hearted Woman
TTITLE4=When I Dream
TTITLE5=All I Want To Do In Life
TTITLE6=It'll Be Her
TTITLE7=There She Goes
TTITLE8=Queen Bee
TTITLE9=You Ask Me To
EXTD=
EXTT0=
EXTT1=
EXTT2=
EXTT3=
EXTT4=
EXTT5=
EXTT6=
EXTT7=
EXTT8=
EXTT9=
PLAYORDER=
